<?xml version="1.0" standalone="no"?>
<!DOCTYPE svg PUBLIC "-//W3C//DTD SVG 20010904//EN"
 "http://www.w3.org/TR/2001/REC-SVG-20010904/DTD/svg10.dtd">
<svg version="1.0" xmlns="http://www.w3.org/2000/svg"
 width="1280.000000pt" height="690.000000pt" viewBox="0 0 1280.000000 690.000000"
 preserveAspectRatio="xMidYMid meet">
<metadata>
Created by potrace 1.15, written by Peter Selinger 2001-2017
</metadata>
<g transform="translate(0.000000,690.000000) scale(0.100000,-0.100000)"
fill="#ffc107" stroke="none">
<path d="M3160 5600 c-19 -6 -78 -22 -130 -36 -52 -14 -108 -31 -125 -37 -84
-33 -300 -147 -370 -196 -94 -64 -209 -177 -259 -253 -32 -48 -153 -335 -170
-401 -3 -15 -18 -53 -33 -85 -14 -31 -45 -111 -68 -177 -47 -132 -134 -323
-192 -418 -97 -164 -247 -311 -522 -515 -36 -26 -91 -69 -124 -97 -33 -27 -94
-76 -136 -109 -42 -32 -89 -70 -105 -85 -34 -31 -99 -165 -120 -248 -28 -113
-47 -401 -28 -429 15 -21 42 -22 119 -4 90 22 316 113 401 161 105 60 147 81
186 95 46 17 230 123 396 230 63 40 138 86 166 103 28 16 80 52 116 79 86 67
185 132 343 227 211 128 314 178 365 181 25 1 62 5 82 9 36 7 37 7 44 -30 11
-59 -2 -212 -26 -300 -24 -92 -89 -218 -164 -320 -28 -38 -209 -230 -402 -427
-411 -418 -490 -516 -562 -697 -89 -224 -79 -460 27 -650 132 -237 264 -386
495 -560 43 -32 204 -108 246 -115 113 -19 388 -36 690 -41 1116 -20 2008 -21
2257 -3 163 12 409 1 508 -22 52 -12 380 -12 760 0 165 5 422 12 570 15 1153
24 1478 38 1660 71 89 16 342 75 450 104 39 11 150 35 249 55 206 41 252 61
371 157 102 82 156 141 334 363 205 255 418 472 596 606 78 59 284 197 338
227 95 53 318 163 412 202 55 23 134 58 175 77 41 19 98 43 125 53 147 51 182
68 216 100 46 44 43 75 -12 124 -50 46 -95 68 -199 99 -143 43 -574 154 -710
182 -36 8 -105 26 -155 40 -49 15 -173 44 -275 66 -412 87 -492 112 -498 155
-6 43 20 75 136 168 66 52 145 123 176 157 80 89 129 195 94 201 -7 2 -101 3
-208 3 l-195 0 3 31 c4 44 -14 84 -38 84 -11 0 -48 -11 -82 -24 -180 -68 -315
-105 -430 -117 -137 -13 -933 -17 -1308 -7 -365 11 -859 39 -1040 60 -134 15
-361 23 -600 22 -163 -1 -230 -6 -330 -23 -69 -12 -168 -29 -220 -38 -250 -42
-386 -86 -652 -211 -45 -22 -112 -52 -148 -67 -36 -15 -87 -37 -115 -50 -102
-48 -310 -136 -446 -189 -102 -39 -243 -76 -253 -66 -24 24 -47 153 -53 290
-6 169 6 304 42 445 58 228 90 458 89 640 -1 125 -2 135 -44 260 -63 190 -94
241 -224 369 -122 119 -190 174 -281 228 -33 19 -92 54 -131 77 -136 79 -375
172 -531 204 -133 29 -459 45 -523 27z"/>
</g>
</svg>
